<?xml version="1.0" encoding="UTF-8"?>
<svg id="Layer_1" data-name="Layer 1" xmlns="http://www.w3.org/2000/svg" version="1.1" viewBox="0 0 163.4 259.1">
  <defs>
    <style>
      .cls-1 {
        fill: #fff;
        stroke-width: 0px;
      }
    </style>
  </defs>
  <g>
    <path class="cls-1" d="M115.3,135.9c-.4.4-.7,1.1-.7,2.2s.2,1.7.7,2.1,1.2.6,2.2.7c1.1-.1,1.8-.4,2.2-.7s.6-1.1.6-2.1-.2-1.8-.6-2.2c-.4-.4-1.2-.6-2.2-.7-1.1,0-1.8.3-2.2.7Z"/>
    <path class="cls-1" d="M123.1,129.6c-1.8-1-3.5-1.5-5.3-1.5h-.3c-1.8,0-3.5.5-5.3,1.5-3,1.6-4.4,4.5-4.4,8.4s1.5,6.8,4.4,8.4c1.7.9,3.5,1.4,5.3,1.4h.3c1.8,0,3.6-.5,5.3-1.4,3-1.7,4.4-4.5,4.4-8.4s-1.5-6.8-4.4-8.4ZM122.3,145.1c-1.5.8-3,1.3-4.6,1.3h-.2c-1.6,0-3.1-.4-4.6-1.3-2.4-1.4-3.6-3.7-3.6-7s1.2-5.7,3.6-7.1c1.5-.8,3-1.3,4.6-1.3h.2c1.6,0,3.1.4,4.6,1.3,2.4,1.4,3.6,3.7,3.6,7.1s-1.2,5.7-3.6,7Z"/>
    <path class="cls-1" d="M63.9,120.9c-1.2,0-2.2.4-3,1.3l-9.9,9.9-9.9-9.9c-.8-.8-1.8-1.2-3-1.3-1.2,0-2.2.4-3,1.3s-1.3,1.9-1.3,3.1.4,2.2,1.3,3.1l9.9,9.9-9.9,9.9c-.8.8-1.3,1.9-1.3,3.1s.4,2.2,1.3,3.1c.8.8,1.9,1.3,3,1.3s2.2-.4,3-1.3l9.9-9.9,9.9,9.9c.8.8,1.9,1.3,3,1.3s2.2-.4,3.1-1.3c.8-.8,1.3-1.9,1.3-3.1s-.4-2.2-1.3-3.1l-9.9-9.9,9.9-9.9c.8-.8,1.3-1.9,1.3-3.1s-.4-2.2-1.3-3.1c-.8-.8-1.9-1.3-3.1-1.3ZM65.7,127.1l-11.2,11.1,11.2,11.1c.5.5.8,1.1.8,1.8s-.2,1.4-.8,1.9c-.5.5-1.1.8-1.8.8s-1.3-.2-1.8-.8l-11.2-11.1-11.2,11.1c-.5.5-1.1.8-1.8.8s-1.3-.3-1.9-.8-.8-1.1-.8-1.9.2-1.3.8-1.8l11.2-11.1-11.2-11.2c-.5-.5-.8-1.1-.8-1.8s.3-1.3.8-1.9c.5-.5,1.1-.8,1.9-.8.8,0,1.4.3,1.8.8l11.2,11.2,11.2-11.2c.5-.5,1.1-.8,1.8-.8s1.3.3,1.8.8.8,1.1.8,1.9-.2,1.3-.8,1.8Z"/>
    <path class="cls-1" d="M151.8,84c7.6-16,11.4-24,11.6-28.9.5-9.2-2.9-20.1-9.1-27.9-3.1-3.9-5.4-5-7.9-9.9-4.6-8.9-3.6-17.3-4.2-17.3-.6,0-1.7,7.7-.5,17,.7,5.3,2,10.4,3.7,16.8,2.1,8.2,2.3,8.5,2.5,10.6.3,4.8.5,7.6-9.6,15.6-10.4,8.1-10.4,11.9-13.1,15.6-1.4,1.9-2.6,0-9.9-3-19.1-7.6-22.4-7.2-33.5-7.5-11.1.3-14.4,0-33.5,7.5-7.3,2.9-8.5,4.8-9.9,3-2.7-3.7-2.7-7.4-13.1-15.6-10.2-8-9.9-10.7-9.6-15.6.1-2.1.3-2.4,2.5-10.6,1.7-6.4,3-11.5,3.7-16.8,1.2-9.4,0-17-.5-17.1-.6,0,.4,8.4-4.2,17.3-2.6,4.9-4.8,6-7.9,9.9C2.9,35-.4,45.9,0,55.1c.2,4.9,4,12.9,11.6,28.9,5.7,11.9,6.4,12.2,6.9,15.8,1.5,9.4-2.9,10.3-4.2,27.2-.6,7-.2,11.3-3.5,16.1-2.7,3.8-4.7,3.5-7.1,6.4-6.1,7.2,1.4,14.9,7.9,24.2,1.2,1.7,3,18.7,14.8,19.5,15.7,1.1,35.7-16.9,45.1-28.8,3-3.8,4.9-7.6,10.2-7.3,5.3-.3,7.2,3.6,10.2,7.3,9.3,11.8,29.3,29.9,45.1,28.8,11.9-.8,13.7-17.9,14.8-19.5,6.5-9.4,14-17,7.9-24.2-2.4-2.9-4.5-2.6-7.1-6.4-3.3-4.7-2.9-9.1-3.5-16.1-1.4-16.8-5.7-17.8-4.2-27.2.6-3.6,1.3-3.9,6.9-15.8h0ZM68.4,141.6c1.1,1.1,1.9,1.9,2.5,2.6h0c1.9,1.8,2.9,4.2,2.9,7s-1,5.1-2.9,7.1c-1.9,1.9-4.3,2.9-7.1,2.9s-5.1-1-7.1-2.9l-5.9-5.9-5.9,5.9c-2,1.9-4.3,2.9-7.1,2.9s-5.1-1-7.1-2.9c-2-1.9-2.9-4.3-2.9-7.1s1-5.1,2.9-7.1l5.9-5.9-5.9-5.9c-2-1.9-2.9-4.3-2.9-7.1s1-5.2,3-7.2,4.4-2.9,7.2-2.8c2.7,0,5,1,7,2.9l5.9,5.9,5.9-5.9c2-1.9,4.3-2.9,7.1-2.9s5.1,1,7.1,2.9c1.9,1.9,2.9,4.3,2.9,7.1s-1,5.1-2.9,7.1l-5.9,5.9,3.4,3.4h0ZM136.5,149.5c-1.9,3.2-4.6,5.8-8,7.6-3.5,1.9-7.1,2.8-10.9,2.8s-7.1-.8-10.5-2.5c-3.7-1.8-6.6-4.5-8.6-8-1.9-3.4-2.9-7.2-2.9-11.4s1-8,2.9-11.3c1.9-3.3,4.6-5.9,8.2-7.8,3.4-1.8,7-2.7,10.9-2.7s7.1.8,10.5,2.5c3.7,1.8,6.5,4.5,8.6,8,1.9,3.4,2.9,7.2,2.9,11.4s-1,8.1-3,11.5h0Z"/>
    <path class="cls-1" d="M125.6,123.5c-2.6-1.3-5.3-2-8-2s-5.4.7-8,2c-5.7,2.8-8.5,7.7-8.5,14.5s.7,6.2,2.2,8.7c.8,1.5,1.6,2.5,2.1,3.1.9.9,2.2,1.8,4.1,2.7,2.7,1.4,5.4,2,8.1,2s5.4-.7,8.1-2c5.6-2.8,8.4-7.6,8.4-14.5s-2.8-11.7-8.5-14.5h0ZM132.4,138c0,6.2-2.5,10.6-7.6,13.1-2.4,1.2-4.8,1.8-7.3,1.8s-4.9-.6-7.3-1.8c-5.1-2.5-7.6-6.9-7.6-13.1s2.5-10.6,7.6-13.1c2.4-1.2,4.8-1.8,7.3-1.8s5.1.6,7.3,1.8c2.4,1.3,4.3,3,5.5,5.2,1.3,2.3,2,4.9,2,7.9h0Z"/>
  </g>
  <path class="cls-1" d="M109.3,201.6s7.4,16.6,21.4,18.5c5.9-8.1,10-15.7,12.9-21.7-2.9,2-5.3,2.7-6.6,2.9-17.2,3.6-40.5-19.9-45.1-28.8-.6-1.1-2.7-5.3-6.8-6.9-1-.4-2.1-.5-3.4-.5-1.3,0-2.4.1-3.4.5-4.2,1.6-6.2,5.8-6.8,6.9-4.5,8.9-27.8,32.4-45.1,28.8-1.4-.3-3.8-1-6.6-2.9,2.9,6,7,13.7,12.9,21.9,15-.9,22.9-18.7,22.9-18.7,1.1,1-8.9,18.3-15,28.6,2.9,3.4,6.2,6.8,9.8,10.1,9,8.4,18.5,14.4,26.4,18.9.2-10.3.7-28.9.8-33.7,0-6.7-7.9-12-7.9-12,6.8-2.8,11.4-21,12-23.6,0-.2,0-.3,0-.3h.1s0,.1,0,.3c.6,2.5,5.2,20.7,12,23.6,0,0-8,5.2-7.9,12,0,4.8.5,23.4.8,33.7,7.9-4.4,17.5-10.5,26.4-18.9,4-3.7,7.5-7.5,10.7-11.2-6.2-10.4-15.5-26.6-14.4-27.5h0Z"/>
</svg>