<?xml version="1.0" encoding="UTF-8"?><svg id="Layer_1" xmlns="http://www.w3.org/2000/svg" viewBox="0 0 163.43 259.13"><defs><style>.cls-1{fill:#231f20;}</style></defs><g><path class="cls-1" d="m115.34,135.88c-.44.4-.66,1.13-.66,2.19s.22,1.73.66,2.11c.44.38,1.19.63,2.25.74,1.06-.11,1.8-.36,2.22-.74.42-.38.63-1.09.63-2.11s-.21-1.79-.63-2.19c-.42-.4-1.16-.62-2.22-.66-1.06.04-1.81.26-2.25.66Z"/><path class="cls-1" d="m123.08,129.62c-1.76-.99-3.53-1.48-5.32-1.48h-.33c-1.76,0-3.53.49-5.32,1.48-2.96,1.65-4.44,4.46-4.44,8.45s1.48,6.8,4.44,8.45c1.68.95,3.46,1.43,5.32,1.43h.33c1.83,0,3.58-.48,5.27-1.43,2.96-1.68,4.44-4.5,4.44-8.45s-1.46-6.8-4.39-8.45Zm-.82,15.47c-1.5.84-3.04,1.26-4.61,1.26h-.16c-1.57,0-3.11-.42-4.61-1.26-2.41-1.35-3.62-3.69-3.62-7.02s1.21-5.72,3.62-7.08c1.5-.84,3.03-1.26,4.61-1.26h.16c1.57,0,3.11.42,4.61,1.26,2.41,1.35,3.62,3.71,3.62,7.08s-1.21,5.67-3.62,7.02Z"/><path class="cls-1" d="m63.86,120.9c-1.19,0-2.2.42-3.05,1.26l-9.94,9.94-9.94-9.94c-.8-.8-1.82-1.23-3.05-1.26-1.19,0-2.2.42-3.05,1.26s-1.26,1.86-1.26,3.05.42,2.2,1.26,3.05l9.94,9.94-9.94,9.94c-.84.84-1.26,1.86-1.26,3.05s.42,2.2,1.26,3.05c.84.84,1.86,1.26,3.05,1.26s2.2-.42,3.05-1.26l9.94-9.94,9.94,9.94c.84.84,1.86,1.26,3.05,1.26s2.2-.42,3.05-1.26c.84-.84,1.26-1.86,1.26-3.05s-.42-2.2-1.26-3.05l-9.94-9.94,9.94-9.94c.84-.84,1.26-1.86,1.26-3.05s-.42-2.2-1.26-3.05c-.84-.84-1.86-1.26-3.05-1.26Zm1.84,6.15l-11.15,11.15,11.15,11.15c.5.5.75,1.11.75,1.84s-.25,1.35-.75,1.87c-.5.52-1.11.78-1.84.78s-1.34-.25-1.84-.75l-11.15-11.15-11.15,11.15c-.5.5-1.11.75-1.84.75s-1.35-.26-1.87-.78c-.52-.52-.78-1.14-.78-1.87s.25-1.34.75-1.84l11.15-11.15-11.15-11.15c-.5-.5-.75-1.11-.75-1.84s.26-1.35.78-1.87c.52-.52,1.14-.78,1.87-.78.77.04,1.38.29,1.84.75l11.15,11.2,11.15-11.2c.5-.5,1.11-.75,1.84-.75s1.34.26,1.84.78c.5.52.75,1.14.75,1.87s-.25,1.34-.75,1.84Z"/><path class="cls-1" d="m151.77,84.04c7.58-16.01,11.36-24.01,11.62-28.92.47-9.18-2.89-20.11-9.15-27.93-3.13-3.91-5.36-5.01-7.91-9.89C141.7,8.44,142.73-.02,142.13,0c-.57.01-1.72,7.65-.49,17.05.69,5.3,2.03,10.43,3.71,16.81,2.15,8.19,2.34,8.54,2.47,10.63.3,4.84.52,7.61-9.64,15.57-10.39,8.14-10.4,11.88-13.1,15.57-1.37,1.88-2.57-.07-9.89-2.97-19.09-7.55-22.42-7.15-33.48-7.5-11.06.35-14.39-.05-33.48,7.5-7.32,2.89-8.52,4.84-9.89,2.97-2.7-3.7-2.71-7.43-13.1-15.57-10.16-7.96-9.94-10.73-9.64-15.57.13-2.08.32-2.43,2.47-10.63,1.67-6.38,3.02-11.51,3.71-16.81C23.02,7.65,21.87.01,21.3,0c-.6-.02.43,8.44-4.2,17.3-2.55,4.88-4.78,5.98-7.91,9.89C2.93,35-.43,45.93.04,55.12c.25,4.91,4.04,12.91,11.62,28.92,5.66,11.95,6.35,12.2,6.92,15.82,1.48,9.42-2.85,10.34-4.2,27.19-.56,6.96-.18,11.33-3.51,16.06-2.66,3.78-4.67,3.5-7.12,6.44-6.05,7.25,1.4,14.88,7.91,24.22,1.16,1.67,2.96,18.7,14.83,19.53,15.72,1.09,35.73-16.93,45.06-28.76,2.98-3.77,4.86-7.64,10.16-7.33,5.3-.31,7.19,3.56,10.16,7.33,9.33,11.83,29.35,29.85,45.06,28.76,11.87-.83,13.67-17.86,14.83-19.53,6.51-9.35,13.96-16.97,7.91-24.22-2.45-2.94-4.46-2.65-7.12-6.44-3.32-4.73-2.95-9.1-3.51-16.06-1.35-16.85-5.68-17.77-4.2-27.19.57-3.62,1.27-3.87,6.92-15.82Zm-83.37,57.55c1.07,1.07,1.92,1.95,2.53,2.64v-.12c1.95,1.95,2.93,4.31,2.93,7.07s-.98,5.11-2.93,7.07c-1.95,1.95-4.31,2.93-7.07,2.93s-5.11-.98-7.07-2.93l-5.92-5.92-5.92,5.92c-1.95,1.95-4.31,2.93-7.07,2.93s-5.11-.98-7.07-2.93c-1.95-1.95-2.93-4.31-2.93-7.07s.98-5.11,2.93-7.07l5.92-5.92-5.92-5.92c-1.95-1.95-2.93-4.31-2.93-7.07s.99-5.22,2.96-7.15c1.97-1.93,4.36-2.88,7.15-2.84,2.72.04,5.04,1.02,6.95,2.93l5.92,5.92,5.92-5.92c1.95-1.95,4.31-2.93,7.07-2.93s5.11.98,7.07,2.93c1.95,1.95,2.93,4.31,2.93,7.07s-.98,5.11-2.93,7.07l-5.92,5.92,3.39,3.39Zm68.12,7.94c-1.9,3.22-4.58,5.76-8.04,7.62-3.46,1.86-7.1,2.8-10.94,2.8-3.62,0-7.11-.84-10.48-2.52-3.69-1.83-6.55-4.5-8.56-8.01-1.94-3.36-2.91-7.17-2.91-11.41s.96-8.03,2.88-11.35c1.92-3.33,4.63-5.94,8.15-7.84,3.4-1.83,7.04-2.74,10.91-2.74,3.62,0,7.11.84,10.48,2.52,3.69,1.83,6.54,4.5,8.56,8.01,1.94,3.36,2.91,7.17,2.91,11.41s-.99,8.15-2.96,11.52Z"/><path class="cls-1" d="m125.55,123.48c-2.63-1.32-5.3-1.97-8.01-1.97s-5.38.66-8.01,1.97c-5.67,2.82-8.5,7.66-8.5,14.53,0,3.33.73,6.23,2.19,8.72.84,1.46,1.55,2.49,2.14,3.07.88.88,2.23,1.77,4.06,2.69,2.67,1.35,5.38,2.03,8.12,2.03s5.41-.68,8.12-2.03c5.59-2.78,8.39-7.6,8.39-14.48s-2.83-11.72-8.5-14.53Zm6.86,14.53c0,6.22-2.52,10.59-7.57,13.11-2.41,1.21-4.85,1.81-7.3,1.81s-4.94-.6-7.35-1.81c-5.05-2.52-7.57-6.89-7.57-13.11s2.54-10.59,7.62-13.11c2.41-1.21,4.84-1.81,7.3-1.81,2.6,0,5.05.6,7.35,1.81,2.45,1.28,4.3,3,5.54,5.16,1.32,2.27,1.97,4.92,1.97,7.95Z"/></g><path class="cls-1" d="m109.34,201.56s7.4,16.57,21.41,18.54c5.86-8.14,9.99-15.73,12.85-21.74-2.87,1.99-5.31,2.67-6.65,2.95-17.24,3.61-40.54-19.85-45.06-28.76-.55-1.09-2.65-5.27-6.8-6.86-.96-.37-2.06-.54-3.36-.47-1.31-.08-2.4.1-3.36.47-4.15,1.59-6.25,5.77-6.8,6.86-4.53,8.91-27.83,32.37-45.06,28.76-1.35-.28-3.78-.96-6.65-2.95,2.87,6.04,7.03,13.69,12.95,21.89,14.96-.95,22.89-18.69,22.89-18.69,1.12.96-8.88,18.26-15.02,28.6,2.94,3.37,6.19,6.77,9.78,10.12,8.95,8.36,18.52,14.45,26.43,18.85.25-10.26.7-28.89.76-33.68.09-6.72-7.94-11.97-7.94-11.97,6.78-2.8,11.41-21,12.02-23.55-.05-.19-.07-.3-.07-.3h.14s-.02.11-.07.3c.62,2.54,5.25,20.74,12.02,23.55,0,0-8.03,5.25-7.94,11.97.06,4.8.51,23.43.76,33.68,7.91-4.4,17.48-10.49,26.43-18.85,3.98-3.71,7.53-7.48,10.72-11.21-6.16-10.42-15.46-26.58-14.37-27.51Z"/></svg>